<svg xmlns="http://www.w3.org/2000/svg" width="163.281" height="34.938" viewBox="0 0 163.281 34.938">
  <metadata><?xpacket begin="﻿" id="W5M0MpCehiHzreSzNTczkc9d"?>
<x:xmpmeta xmlns:x="adobe:ns:meta/" x:xmptk="Adobe XMP Core 5.6-c138 79.159824, 2016/09/14-01:09:01        ">
   <rdf:RDF xmlns:rdf="http://www.w3.org/1999/02/22-rdf-syntax-ns#">
      <rdf:Description rdf:about=""/>
   </rdf:RDF>
</x:xmpmeta>
                                                                                                    
                                                                                                    
                                                                                                    
                                                                                                    
                                                                                                    
                                                                                                    
                                                                                                    
                                                                                                    
                                                                                                    
                                                                                                    
                                                                                                    
                                                                                                    
                                                                                                    
                                                                                                    
                                                                                                    
                                                                                                    
                                                                                                    
                                                                                                    
                                                                                                    
                                                                                                    
                           
<?xpacket end="w"?></metadata>
<defs>
    <style>
      .cls-1 {
        fill-rule: evenodd;
      }
    </style>
  </defs>
  <path id="logo" class="cls-1" d="M199.58,21.911v33.6h13.532a15.723,15.723,0,0,0,11.72-4.824,16.464,16.464,0,0,0,4.712-11.976,16.465,16.465,0,0,0-4.712-11.976,15.723,15.723,0,0,0-11.72-4.824H199.58Zm7.733,26.208V29.3h5.8a8.648,8.648,0,0,1,6.5,2.568,9.412,9.412,0,0,1,2.489,6.84,9.41,9.41,0,0,1-2.489,6.84,8.646,8.646,0,0,1-6.5,2.568h-5.8Zm34.8-5.952h12.082v-7.3H242.109V29.3H255.4V21.911H234.376v33.6h21.265V48.119H242.109V42.167Zm36.343,13.344,11.019-33.6h-8.458l-7.491,24.72-7.491-24.72h-8.457l11.019,33.6h9.859Zm14.4,0h7.733v-33.6h-7.733v33.6Zm38.615-1.416a15.514,15.514,0,0,0,6.041-5.688l-6.67-3.84a7.488,7.488,0,0,1-3.165,3.024,9.874,9.874,0,0,1-4.664,1.1,9.594,9.594,0,0,1-7.177-2.736,9.907,9.907,0,0,1-2.682-7.248,9.908,9.908,0,0,1,2.682-7.248,9.594,9.594,0,0,1,7.177-2.736,9.914,9.914,0,0,1,4.64,1.08,7.6,7.6,0,0,1,3.189,3.048l6.67-3.84a15.881,15.881,0,0,0-6.09-5.688,17.419,17.419,0,0,0-8.409-2.088,17.12,17.12,0,0,0-17.592,17.472A17.12,17.12,0,0,0,323.01,56.183,17.519,17.519,0,0,0,331.468,54.095Zm17.881-11.928h12.082v-7.3H349.349V29.3h13.29V21.911H341.617v33.6h21.264V48.119H349.349V42.167Z" transform="translate(-199.594 -21.25)"/>
</svg>
